# xmcd CD database file
#
# Track frame offsets:
#	150
#	19872
#	40390
#	67166
#	95708
#	116253
#	139712
#	165606
#	191298
#	218639
#	239396
#	262878
#	286316
#
# Disc length: 4086 seconds
#
# Revision: 0
# Processed by: cddbd v1.5.1PL0 Copyright (c) Steve Scherf et al.
# Submitted via: CDex 1.51
#
DISCID=b70ff40d
DTITLE=Slide Hampton  - Plays  the Music of Antonio Carlos Jobim
DYEAR=2005
DGENRE=Jazz
TTITLE0=Stone Flower
TTITLE1=Agua de Beber
TTITLE2=Desafinado
TTITLE3=Voce Vai Ver
TTITLE4=Children's Game
TTITLE5=Useless Landscape
TTITLE6=Brigas Nunca mais
TTITLE7=How Insensitive
TTITLE8=Quiet Nights
TTITLE9=Waters of march
TTITLE10=Tereza my Love
TTITLE11=Once I Loved
TTITLE12=O Cantador
EXTD=YEAR: 2005
EXTT0=
EXTT1=
EXTT2=
EXTT3=
EXTT4=
EXTT5=
EXTT6=
EXTT7=
EXTT8=
EXTT9=
EXTT10=
EXTT11=
EXTT12=
PLAYORDER=
